<svg width="161" height="49" viewBox="0 0 161 49" fill="none" xmlns="http://www.w3.org/2000/svg">
<path d="M8.79545 26.7841L8.77841 19.3352H9.76705L19.1761 8.81818H26.3864L14.8125 21.7045H13.5341L8.79545 26.7841ZM3.17045 35V0.0909081H9.34091V35H3.17045ZM19.6023 35L11.0795 23.0852L15.2386 18.7386L26.983 35H19.6023ZM36.669 0.0909081V35H30.4986V0.0909081H36.669ZM54.4347 35.5114C51.8778 35.5114 49.6619 34.9489 47.7869 33.8239C45.9119 32.6989 44.4574 31.125 43.4233 29.1023C42.4006 27.0795 41.8892 24.7159 41.8892 22.0114C41.8892 19.3068 42.4006 16.9375 43.4233 14.9034C44.4574 12.8693 45.9119 11.2898 47.7869 10.1648C49.6619 9.03977 51.8778 8.47727 54.4347 8.47727C56.9915 8.47727 59.2074 9.03977 61.0824 10.1648C62.9574 11.2898 64.4063 12.8693 65.429 14.9034C66.4631 16.9375 66.9801 19.3068 66.9801 22.0114C66.9801 24.7159 66.4631 27.0795 65.429 29.1023C64.4063 31.125 62.9574 32.6989 61.0824 33.8239C59.2074 34.9489 56.9915 35.5114 54.4347 35.5114ZM54.4688 30.5682C55.8551 30.5682 57.0142 30.1875 57.946 29.4261C58.8778 28.6534 59.571 27.6193 60.0256 26.3239C60.4915 25.0284 60.7244 23.5852 60.7244 21.9943C60.7244 20.392 60.4915 18.9432 60.0256 17.6477C59.571 16.3409 58.8778 15.3011 57.946 14.5284C57.0142 13.7557 55.8551 13.3693 54.4688 13.3693C53.0483 13.3693 51.8665 13.7557 50.9233 14.5284C49.9915 15.3011 49.2926 16.3409 48.8267 17.6477C48.3722 18.9432 48.1449 20.392 48.1449 21.9943C48.1449 23.5852 48.3722 25.0284 48.8267 26.3239C49.2926 27.6193 49.9915 28.6534 50.9233 29.4261C51.8665 30.1875 53.0483 30.5682 54.4688 30.5682ZM76.0185 35.375C74.9844 35.375 74.098 35.0114 73.3594 34.2841C72.6207 33.5568 72.2571 32.6705 72.2685 31.625C72.2571 30.6023 72.6207 29.7273 73.3594 29C74.098 28.2727 74.9844 27.9091 76.0185 27.9091C77.0185 27.9091 77.8878 28.2727 78.6264 29C79.3764 29.7273 79.7571 30.6023 79.7685 31.625C79.7571 32.3182 79.5753 32.9489 79.223 33.517C78.8821 34.0852 78.4276 34.5398 77.8594 34.8807C77.3026 35.2102 76.6889 35.375 76.0185 35.375ZM97.5597 35.5114C95.0028 35.5114 92.7869 34.9489 90.9119 33.8239C89.0369 32.6989 87.5824 31.125 86.5483 29.1023C85.5256 27.0795 85.0142 24.7159 85.0142 22.0114C85.0142 19.3068 85.5256 16.9375 86.5483 14.9034C87.5824 12.8693 89.0369 11.2898 90.9119 10.1648C92.7869 9.03977 95.0028 8.47727 97.5597 8.47727C100.116 8.47727 102.332 9.03977 104.207 10.1648C106.082 11.2898 107.531 12.8693 108.554 14.9034C109.588 16.9375 110.105 19.3068 110.105 22.0114C110.105 24.7159 109.588 27.0795 108.554 29.1023C107.531 31.125 106.082 32.6989 104.207 33.8239C102.332 34.9489 100.116 35.5114 97.5597 35.5114ZM97.5938 30.5682C98.9801 30.5682 100.139 30.1875 101.071 29.4261C102.003 28.6534 102.696 27.6193 103.151 26.3239C103.616 25.0284 103.849 23.5852 103.849 21.9943C103.849 20.392 103.616 18.9432 103.151 17.6477C102.696 16.3409 102.003 15.3011 101.071 14.5284C100.139 13.7557 98.9801 13.3693 97.5938 13.3693C96.1733 13.3693 94.9915 13.7557 94.0483 14.5284C93.1165 15.3011 92.4176 16.3409 91.9517 17.6477C91.4972 18.9432 91.2699 20.392 91.2699 21.9943C91.2699 23.5852 91.4972 25.0284 91.9517 26.3239C92.4176 27.6193 93.1165 28.6534 94.0483 29.4261C94.9915 30.1875 96.1733 30.5682 97.5938 30.5682ZM126.763 35.5114C124.206 35.5114 121.99 34.9489 120.115 33.8239C118.24 32.6989 116.786 31.125 115.751 29.1023C114.729 27.0795 114.217 24.7159 114.217 22.0114C114.217 19.3068 114.729 16.9375 115.751 14.9034C116.786 12.8693 118.24 11.2898 120.115 10.1648C121.99 9.03977 124.206 8.47727 126.763 8.47727C129.32 8.47727 131.536 9.03977 133.411 10.1648C135.286 11.2898 136.734 12.8693 137.757 14.9034C138.791 16.9375 139.308 19.3068 139.308 22.0114C139.308 24.7159 138.791 27.0795 137.757 29.1023C136.734 31.125 135.286 32.6989 133.411 33.8239C131.536 34.9489 129.32 35.5114 126.763 35.5114ZM126.797 30.5682C128.183 30.5682 129.342 30.1875 130.274 29.4261C131.206 28.6534 131.899 27.6193 132.354 26.3239C132.82 25.0284 133.053 23.5852 133.053 21.9943C133.053 20.392 132.82 18.9432 132.354 17.6477C131.899 16.3409 131.206 15.3011 130.274 14.5284C129.342 13.7557 128.183 13.3693 126.797 13.3693C125.376 13.3693 124.195 13.7557 123.251 14.5284C122.32 15.3011 121.621 16.3409 121.155 17.6477C120.7 18.9432 120.473 20.392 120.473 21.9943C120.473 23.5852 120.7 25.0284 121.155 26.3239C121.621 27.6193 122.32 28.6534 123.251 29.4261C124.195 30.1875 125.376 30.5682 126.797 30.5682ZM144.545 35V8.81818H150.528V13.1818H150.801C151.278 11.6705 152.097 10.5057 153.256 9.6875C154.426 8.85795 155.761 8.44318 157.261 8.44318C157.602 8.44318 157.983 8.46023 158.403 8.49432C158.835 8.51704 159.193 8.55682 159.477 8.61364V14.2898C159.216 14.1989 158.801 14.1193 158.233 14.0511C157.676 13.9716 157.136 13.9318 156.614 13.9318C155.489 13.9318 154.477 14.1761 153.58 14.6648C152.693 15.142 151.994 15.8068 151.483 16.6591C150.972 17.5114 150.716 18.4943 150.716 19.608V35H144.545Z" fill="#FB923C"/>
<path d="M17.054 43.1449H15.9915C15.9612 42.9706 15.9053 42.8163 15.8239 42.6818C15.7424 42.5455 15.6411 42.4299 15.5199 42.3352C15.3987 42.2405 15.2604 42.1695 15.1051 42.1222C14.9517 42.0729 14.786 42.0483 14.608 42.0483C14.2917 42.0483 14.0114 42.1278 13.767 42.2869C13.5227 42.4441 13.3314 42.6752 13.1932 42.9801C13.0549 43.2831 12.9858 43.6534 12.9858 44.0909C12.9858 44.536 13.0549 44.911 13.1932 45.2159C13.3333 45.5189 13.5246 45.7481 13.767 45.9034C14.0114 46.0568 14.2907 46.1335 14.6051 46.1335C14.7794 46.1335 14.9422 46.1108 15.0938 46.0653C15.2472 46.018 15.3845 45.9489 15.5057 45.858C15.6288 45.767 15.732 45.6553 15.8153 45.5227C15.9006 45.3902 15.9593 45.2386 15.9915 45.0682L17.054 45.0739C17.0142 45.3504 16.928 45.6098 16.7955 45.8523C16.6648 46.0947 16.4934 46.3087 16.2812 46.4943C16.0691 46.678 15.821 46.822 15.5369 46.9261C15.2528 47.0284 14.9375 47.0795 14.5909 47.0795C14.0795 47.0795 13.6231 46.9612 13.2216 46.7244C12.8201 46.4877 12.5038 46.1458 12.2727 45.6989C12.0417 45.2519 11.9261 44.7159 11.9261 44.0909C11.9261 43.464 12.0426 42.928 12.2756 42.483C12.5085 42.036 12.8258 41.6941 13.2273 41.4574C13.6288 41.2206 14.0833 41.1023 14.5909 41.1023C14.9148 41.1023 15.2159 41.1477 15.4943 41.2386C15.7727 41.3295 16.0208 41.4631 16.2386 41.6392C16.4564 41.8134 16.6354 42.0275 16.7756 42.2812C16.9176 42.5331 17.0104 42.821 17.054 43.1449ZM24.818 44.0909C24.818 44.7178 24.7006 45.2547 24.4658 45.7017C24.2328 46.1468 23.9146 46.4877 23.5112 46.7244C23.1097 46.9612 22.6542 47.0795 22.1447 47.0795C21.6353 47.0795 21.1788 46.9612 20.7754 46.7244C20.3739 46.4858 20.0557 46.1439 19.8209 45.6989C19.5879 45.2519 19.4714 44.7159 19.4714 44.0909C19.4714 43.464 19.5879 42.928 19.8209 42.483C20.0557 42.036 20.3739 41.6941 20.7754 41.4574C21.1788 41.2206 21.6353 41.1023 22.1447 41.1023C22.6542 41.1023 23.1097 41.2206 23.5112 41.4574C23.9146 41.6941 24.2328 42.036 24.4658 42.483C24.7006 42.928 24.818 43.464 24.818 44.0909ZM23.7584 44.0909C23.7584 43.6496 23.6893 43.2775 23.551 42.9744C23.4146 42.6695 23.2252 42.4394 22.9828 42.2841C22.7404 42.1269 22.461 42.0483 22.1447 42.0483C21.8285 42.0483 21.5491 42.1269 21.3067 42.2841C21.0643 42.4394 20.8739 42.6695 20.7357 42.9744C20.5993 43.2775 20.5311 43.6496 20.5311 44.0909C20.5311 44.5322 20.5993 44.9053 20.7357 45.2102C20.8739 45.5133 21.0643 45.7434 21.3067 45.9006C21.5491 46.0559 21.8285 46.1335 22.1447 46.1335C22.461 46.1335 22.7404 46.0559 22.9828 45.9006C23.2252 45.7434 23.4146 45.5133 23.551 45.2102C23.6893 44.9053 23.7584 44.5322 23.7584 44.0909ZM32.1957 41.1818V47H31.2582L28.5168 43.0369H28.4685V47H27.4145V41.1818H28.3577L31.0963 45.1477H31.1474V41.1818H32.1957ZM34.6885 42.0653V41.1818H39.3305V42.0653H37.5322V47H36.4868V42.0653H34.6885ZM41.8254 47V41.1818H44.0072C44.4542 41.1818 44.8292 41.2595 45.1322 41.4148C45.4372 41.5701 45.6673 41.7879 45.8226 42.0682C45.9798 42.3466 46.0584 42.6714 46.0584 43.0426C46.0584 43.4157 45.9788 43.7396 45.8197 44.0142C45.6625 44.2869 45.4305 44.4981 45.1237 44.6477C44.8169 44.7955 44.44 44.8693 43.993 44.8693H42.4391V43.9943H43.851C44.1124 43.9943 44.3264 43.9583 44.493 43.8864C44.6597 43.8125 44.7828 43.7055 44.8624 43.5653C44.9438 43.4233 44.9845 43.2491 44.9845 43.0426C44.9845 42.8362 44.9438 42.66 44.8624 42.5142C44.7809 42.3665 44.6569 42.2547 44.4902 42.179C44.3235 42.1013 44.1086 42.0625 43.8453 42.0625H42.8794V47H41.8254ZM44.8311 44.3636L46.2714 47H45.0953L43.6805 44.3636H44.8311ZM53.8274 44.0909C53.8274 44.7178 53.71 45.2547 53.4751 45.7017C53.2422 46.1468 52.924 46.4877 52.5206 46.7244C52.1191 46.9612 51.6636 47.0795 51.1541 47.0795C50.6446 47.0795 50.1882 46.9612 49.7848 46.7244C49.3833 46.4858 49.0651 46.1439 48.8303 45.6989C48.5973 45.2519 48.4808 44.7159 48.4808 44.0909C48.4808 43.464 48.5973 42.928 48.8303 42.483C49.0651 42.036 49.3833 41.6941 49.7848 41.4574C50.1882 41.2206 50.6446 41.1023 51.1541 41.1023C51.6636 41.1023 52.1191 41.2206 52.5206 41.4574C52.924 41.6941 53.2422 42.036 53.4751 42.483C53.71 42.928 53.8274 43.464 53.8274 44.0909ZM52.7678 44.0909C52.7678 43.6496 52.6986 43.2775 52.5604 42.9744C52.424 42.6695 52.2346 42.4394 51.9922 42.2841C51.7498 42.1269 51.4704 42.0483 51.1541 42.0483C50.8378 42.0483 50.5585 42.1269 50.3161 42.2841C50.0736 42.4394 49.8833 42.6695 49.745 42.9744C49.6087 43.2775 49.5405 43.6496 49.5405 44.0909C49.5405 44.5322 49.6087 44.9053 49.745 45.2102C49.8833 45.5133 50.0736 45.7434 50.3161 45.9006C50.5585 46.0559 50.8378 46.1335 51.1541 46.1335C51.4704 46.1335 51.7498 46.0559 51.9922 45.9006C52.2346 45.7434 52.424 45.5133 52.5604 45.2102C52.6986 44.9053 52.7678 44.5322 52.7678 44.0909ZM56.4239 47V41.1818H57.4778V46.1165H60.0403V47H56.4239ZM62.5551 47V41.1818H66.3392V42.0653H63.6091V43.6449H66.1432V44.5284H63.6091V46.1165H66.3619V47H62.5551ZM74.5705 47H72.5989V41.1818H74.6102C75.1879 41.1818 75.6841 41.2983 76.0989 41.5312C76.5155 41.7623 76.8356 42.0947 77.0591 42.5284C77.2826 42.9621 77.3943 43.4811 77.3943 44.0852C77.3943 44.6913 77.2816 45.2121 77.0563 45.6477C76.8328 46.0833 76.5099 46.4176 76.0875 46.6506C75.667 46.8835 75.1614 47 74.5705 47ZM73.6528 46.0881H74.5193C74.9246 46.0881 75.2627 46.0142 75.5335 45.8665C75.8044 45.7169 76.008 45.4943 76.1443 45.1989C76.2807 44.9015 76.3489 44.5303 76.3489 44.0852C76.3489 43.6402 76.2807 43.2708 76.1443 42.9773C76.008 42.6818 75.8063 42.4612 75.5392 42.3153C75.2741 42.1676 74.9445 42.0938 74.5506 42.0938H73.6528V46.0881ZM79.9957 47V41.1818H83.7798V42.0653H81.0497V43.6449H83.5838V44.5284H81.0497V46.1165H83.8026V47H79.9957ZM95.0196 43.1449H93.9571C93.9268 42.9706 93.8709 42.8163 93.7895 42.6818C93.708 42.5455 93.6067 42.4299 93.4855 42.3352C93.3643 42.2405 93.226 42.1695 93.0707 42.1222C92.9173 42.0729 92.7516 42.0483 92.5736 42.0483C92.2573 42.0483 91.977 42.1278 91.7327 42.2869C91.4883 42.4441 91.2971 42.6752 91.1588 42.9801C91.0205 43.2831 90.9514 43.6534 90.9514 44.0909C90.9514 44.536 91.0205 44.911 91.1588 45.2159C91.299 45.5189 91.4902 45.7481 91.7327 45.9034C91.977 46.0568 92.2563 46.1335 92.5707 46.1335C92.745 46.1335 92.9079 46.1108 93.0594 46.0653C93.2128 46.018 93.3501 45.9489 93.4713 45.858C93.5944 45.767 93.6976 45.6553 93.781 45.5227C93.8662 45.3902 93.9249 45.2386 93.9571 45.0682L95.0196 45.0739C94.9798 45.3504 94.8937 45.6098 94.7611 45.8523C94.6304 46.0947 94.459 46.3087 94.2469 46.4943C94.0348 46.678 93.7866 46.822 93.5026 46.9261C93.2185 47.0284 92.9031 47.0795 92.5565 47.0795C92.0452 47.0795 91.5887 46.9612 91.1872 46.7244C90.7857 46.4877 90.4694 46.1458 90.2383 45.6989C90.0073 45.2519 89.8918 44.7159 89.8918 44.0909C89.8918 43.464 90.0082 42.928 90.2412 42.483C90.4741 42.036 90.7914 41.6941 91.1929 41.4574C91.5944 41.2206 92.049 41.1023 92.5565 41.1023C92.8804 41.1023 93.1815 41.1477 93.4599 41.2386C93.7383 41.3295 93.9865 41.4631 94.2043 41.6392C94.4221 41.8134 94.601 42.0275 94.7412 42.2812C94.8832 42.5331 94.976 42.821 95.0196 43.1449ZM97.5848 47V41.1818H98.6388V43.6449H101.335V41.1818H102.392V47H101.335V44.5284H98.6388V47H97.5848ZM105.885 47H104.76L106.808 41.1818H108.11L110.161 47H109.036L107.482 42.375H107.436L105.885 47ZM105.922 44.7188H108.99V45.5653H105.922V44.7188ZM112.527 41.1818H113.817L115.544 45.3977H115.612L117.339 41.1818H118.629V47H117.618V43.0028H117.564L115.956 46.983H115.2L113.592 42.9943H113.538V47H112.527V41.1818ZM122.124 47H120.999L123.047 41.1818H124.349L126.4 47H125.275L123.721 42.375H123.675L122.124 47ZM122.161 44.7188H125.229V45.5653H122.161V44.7188ZM130.738 47H128.766V41.1818H130.777C131.355 41.1818 131.851 41.2983 132.266 41.5312C132.683 41.7623 133.003 42.0947 133.226 42.5284C133.45 42.9621 133.562 43.4811 133.562 44.0852C133.562 44.6913 133.449 45.2121 133.223 45.6477C133 46.0833 132.677 46.4176 132.255 46.6506C131.834 46.8835 131.329 47 130.738 47ZM129.82 46.0881H130.687C131.092 46.0881 131.43 46.0142 131.701 45.8665C131.972 45.7169 132.175 45.4943 132.312 45.1989C132.448 44.9015 132.516 44.5303 132.516 44.0852C132.516 43.6402 132.448 43.2708 132.312 42.9773C132.175 42.6818 131.973 42.4612 131.706 42.3153C131.441 42.1676 131.112 42.0938 130.718 42.0938H129.82V46.0881ZM141.362 44.0909C141.362 44.7178 141.244 45.2547 141.01 45.7017C140.777 46.1468 140.458 46.4877 140.055 46.7244C139.653 46.9612 139.198 47.0795 138.688 47.0795C138.179 47.0795 137.723 46.9612 137.319 46.7244C136.918 46.4858 136.599 46.1439 136.365 45.6989C136.132 45.2519 136.015 44.7159 136.015 44.0909C136.015 43.464 136.132 42.928 136.365 42.483C136.599 42.036 136.918 41.6941 137.319 41.4574C137.723 41.2206 138.179 41.1023 138.688 41.1023C139.198 41.1023 139.653 41.2206 140.055 41.4574C140.458 41.6941 140.777 42.036 141.01 42.483C141.244 42.928 141.362 43.464 141.362 44.0909ZM140.302 44.0909C140.302 43.6496 140.233 43.2775 140.095 42.9744C139.958 42.6695 139.769 42.4394 139.527 42.2841C139.284 42.1269 139.005 42.0483 138.688 42.0483C138.372 42.0483 138.093 42.1269 137.85 42.2841C137.608 42.4394 137.418 42.6695 137.279 42.9744C137.143 43.2775 137.075 43.6496 137.075 44.0909C137.075 44.5322 137.143 44.9053 137.279 45.2102C137.418 45.5133 137.608 45.7434 137.85 45.9006C138.093 46.0559 138.372 46.1335 138.688 46.1335C139.005 46.1335 139.284 46.0559 139.527 45.9006C139.769 45.7434 139.958 45.5133 140.095 45.2102C140.233 44.9053 140.302 44.5322 140.302 44.0909ZM147.12 42.7812C147.094 42.5331 146.982 42.34 146.785 42.2017C146.59 42.0634 146.336 41.9943 146.024 41.9943C145.804 41.9943 145.615 42.0275 145.458 42.0938C145.301 42.16 145.181 42.25 145.097 42.3636C145.014 42.4773 144.971 42.607 144.97 42.7528C144.97 42.8741 144.997 42.9792 145.052 43.0682C145.109 43.1572 145.186 43.233 145.282 43.2955C145.379 43.3561 145.486 43.4072 145.603 43.4489C145.721 43.4905 145.839 43.5256 145.958 43.554L146.504 43.6903C146.723 43.7415 146.935 43.8106 147.137 43.8977C147.342 43.9848 147.525 44.0947 147.686 44.2273C147.848 44.3598 147.977 44.5199 148.072 44.7074C148.167 44.8949 148.214 45.1146 148.214 45.3665C148.214 45.7074 148.127 46.0076 147.953 46.267C147.778 46.5246 147.526 46.7263 147.197 46.8722C146.869 47.0161 146.472 47.0881 146.007 47.0881C145.554 47.0881 145.161 47.018 144.828 46.8778C144.496 46.7377 144.237 46.5331 144.049 46.2642C143.864 45.9953 143.763 45.6676 143.748 45.2812H144.785C144.8 45.4839 144.863 45.6525 144.972 45.7869C145.082 45.9214 145.225 46.0218 145.401 46.0881C145.579 46.1544 145.778 46.1875 145.998 46.1875C146.227 46.1875 146.428 46.1534 146.6 46.0852C146.775 46.0152 146.911 45.9186 147.009 45.7955C147.108 45.6705 147.158 45.5246 147.16 45.358C147.158 45.2064 147.114 45.0814 147.026 44.983C146.939 44.8826 146.817 44.7992 146.66 44.733C146.505 44.6648 146.323 44.6042 146.114 44.5511L145.453 44.3807C144.973 44.2576 144.595 44.071 144.316 43.821C144.04 43.5691 143.901 43.2348 143.901 42.8182C143.901 42.4754 143.994 42.1752 144.18 41.9176C144.367 41.66 144.622 41.4602 144.944 41.3182C145.266 41.1742 145.631 41.1023 146.038 41.1023C146.451 41.1023 146.812 41.1742 147.123 41.3182C147.436 41.4602 147.681 41.6581 147.859 41.9119C148.037 42.1638 148.129 42.4536 148.134 42.7812H147.12Z" fill="#FAFAFA"/>
</svg>
